<svg xmlns="http://www.w3.org/2000/svg" xmlns:xlink="http://www.w3.org/1999/xlink" xmlns:lucid="lucid" width="960" height="1560.8"><g transform="translate(-180 -60)" lucid:page-tab-id="0_0"><path d="M608 80c17.67 0 32 17.9 32 40s-14.33 40-32 40h-96c-17.67 0-32-17.9-32-40s14.33-40 32-40z" fill="#b1d6f0"/><use xlink:href="#a" transform="matrix(1,0,0,1,485,85) translate(56.025 38.4625)"/><path d="M480 242c0-1.1.9-2 2-2h156c1.1 0 2 .9 2 2v76c0 1.1-.9 2-2 2H482c-1.1 0-2-.9-2-2z" fill="#ffbbb1"/><use xlink:href="#b" transform="matrix(1,0,0,1,485,245) translate(31.049999999999997 27.525)"/><use xlink:href="#c" transform="matrix(1,0,0,1,485,245) translate(38.099999999999994 49.125)"/><path d="M720 242c0-1.1.9-2 2-2h156c1.1 0 2 .9 2 2v76c0 1.1-.9 2-2 2H722c-1.1 0-2-.9-2-2z" fill="#d1bcd2"/><use xlink:href="#d" transform="matrix(1,0,0,1,725,245) translate(2.6499999999999915 27.525)"/><use xlink:href="#e" transform="matrix(1,0,0,1,725,245) translate(109.4 27.525)"/><use xlink:href="#c" transform="matrix(1,0,0,1,725,245) translate(38.099999999999994 49.125)"/><path d="M798.2 400.9c1-.5 2.6-.5 3.6 0l76.4 38.2c1 .5 1 1.3 0 1.8l-76.4 38.2c-1 .5-2.6.5-3.6 0l-76.4-38.2c-1-.5-1-1.3 0-1.8z" fill="#ffeca9"/><use xlink:href="#f" transform="matrix(1,0,0,1,725,405) translate(53.005 27.525)"/><use xlink:href="#g" transform="matrix(1,0,0,1,725,405) translate(72.005 27.525)"/><use xlink:href="#h" transform="matrix(1,0,0,1,725,405) translate(53.529999999999994 49.125)"/><path d="M720 562c0-1.1.9-2 2-2h156c1.1 0 2 .9 2 2v76c0 1.1-.9 2-2 2H722c-1.1 0-2-.9-2-2z" fill="#b1d6f0"/><use xlink:href="#i" transform="matrix(1,0,0,1,725,565) translate(11.075000000000003 27.525)"/><use xlink:href="#j" transform="matrix(1,0,0,1,725,565) translate(72.025 27.525)"/><use xlink:href="#k" transform="matrix(1,0,0,1,725,565) translate(97.025 27.525)"/><use xlink:href="#l" transform="matrix(1,0,0,1,725,565) translate(60.5 49.125)"/><path d="M960 402c0-1.1.9-2 2-2h156c1.1 0 2 .9 2 2v76c0 1.1-.9 2-2 2H962c-1.1 0-2-.9-2-2z" fill="#ffbbb1"/><use xlink:href="#m" transform="matrix(1,0,0,1,965,405) translate(9.099999999999994 38.4625)"/><use xlink:href="#n" transform="matrix(1,0,0,1,965,405) translate(102 38.4625)"/><path d="M960 562c0-1.1.9-2 2-2h156c1.1 0 2 .9 2 2v76c0 1.1-.9 2-2 2H962c-1.1 0-2-.9-2-2z" fill="#d1bcd2"/><use xlink:href="#o" transform="matrix(1,0,0,1,965,565) translate(27.074999999999996 27.525)"/><use xlink:href="#p" transform="matrix(1,0,0,1,965,565) translate(23.574999999999996 49.125)"/><use xlink:href="#n" transform="matrix(1,0,0,1,965,565) translate(87.525 49.125)"/><path d="M720 722c0-1.1.9-2 2-2h156c1.1 0 2 .9 2 2v76c0 1.1-.9 2-2 2H722c-1.1 0-2-.9-2-2z" fill="#d1bcd2"/><use xlink:href="#q" transform="matrix(1,0,0,1,725,725) translate(9.525000000000006 38.4625)"/><use xlink:href="#r" transform="matrix(1,0,0,1,725,725) translate(61.47500000000001 38.4625)"/><use xlink:href="#l" transform="matrix(1,0,0,1,725,725) translate(111.47500000000001 38.4625)"/><path d="M720 882c0-1.1.9-2 2-2h156c1.1 0 2 .9 2 2v76c0 1.1-.9 2-2 2H722c-1.1 0-2-.9-2-2z" fill="#ffbbb1"/><use xlink:href="#s" transform="matrix(1,0,0,1,725,885) translate(22.775 38.4625)"/><use xlink:href="#t" transform="matrix(1,0,0,1,725,885) translate(70.32499999999999 38.4625)"/><use xlink:href="#u" transform="matrix(1,0,0,1,725,885) translate(113.275 38.4625)"/><path d="M720 1042c0-1.1.9-2 2-2h156c1.1 0 2 .9 2 2v76c0 1.1-.9 2-2 2H722c-1.1 0-2-.9-2-2z" fill="#d1bcd2"/><use xlink:href="#v" transform="matrix(1,0,0,1,725,1045) translate(16.574999999999996 27.525)"/><use xlink:href="#w" transform="matrix(1,0,0,1,725,1045) translate(61.574999999999996 27.525)"/><use xlink:href="#x" transform="matrix(1,0,0,1,725,1045) translate(93.475 27.525)"/><use xlink:href="#y" transform="matrix(1,0,0,1,725,1045) translate(44.55 49.125)"/><path d="M798.2 1200.9c1-.5 2.6-.5 3.6 0l76.4 38.2c1 .5 1 1.3 0 1.8l-76.4 38.2c-1 .5-2.6.5-3.6 0l-76.4-38.2c-1-.5-1-1.3 0-1.8z" fill="#ffeca9"/><use xlink:href="#f" transform="matrix(1,0,0,1,725,1205) translate(35.05 27.799999999999997)"/><use xlink:href="#z" transform="matrix(1,0,0,1,725,1205) translate(54.05 27.799999999999997)"/><use xlink:href="#A" transform="matrix(1,0,0,1,725,1205) translate(20.025 49.4)"/><path d="M720 1362c0-1.1.9-2 2-2h156c1.1 0 2 .9 2 2v76c0 1.1-.9 2-2 2H722c-1.1 0-2-.9-2-2z" fill="#d1bcd2"/><use xlink:href="#q" transform="matrix(1,0,0,1,725,1365) translate(4.599999999999994 38.4625)"/><use xlink:href="#B" transform="matrix(1,0,0,1,725,1365) translate(56.55 38.4625)"/><use xlink:href="#C" transform="matrix(1,0,0,1,725,1365) translate(93.44999999999999 38.4625)"/><path d="M560 161v60.5" stroke="#333" stroke-width="2" fill="none"/><path d="M561 161.03h-2V160h2z" fill="#333"/><path d="M560 236.76l-4.64-14.26h9.28z" stroke="#333" stroke-width="2" fill="#333"/><path d="M641 280h60.5" stroke="#333" stroke-width="2" fill="none"/><path d="M641.03 281H640v-2h1.03z" fill="#333"/><path d="M716.76 280l-14.26 4.64v-9.28z" stroke="#333" stroke-width="2" fill="#333"/><path d="M800 321v61.02" stroke="#333" stroke-width="2" fill="none"/><path d="M801 321.03h-2V320h2z" fill="#333"/><path d="M800 397.3L795.36 383h9.28z" stroke="#333" stroke-width="2" fill="#333"/><path d="M909.98 441h-30.03v-2h30.03zm31.52 0h-12.52v-2h12.52z" fill="#333"/><path d="M879.98 441H878l.2-.1.75-.9-.74-.9-.2-.1h1.98zM956.76 440l-14.26 4.64v-9.28z" fill="#333"/><path d="M960 440l-18.5 6v-12zm-16.5 3.26l10.03-3.26-10.03-3.26z" fill="#333"/><use xlink:href="#D" transform="matrix(1,0,0,1,909.9760565,429.2) translate(0 14.4)"/><path d="M801 541.5h-2v-10.96h2zm0-32.56h-2v-28.46h2z" fill="#333"/><path d="M801 480.5h-2v-1.23l1 .2 1-.2zM800 556.76l-4.64-14.26h9.28z" fill="#333"/><path d="M800 560l-6-18.5h12zm-3.26-16.5l3.26 10.03 3.26-10.03z" fill="#333"/><use xlink:href="#E" transform="matrix(1,0,0,1,783.525,508.9380284999999) translate(0 14.4)"/><path d="M1040 481v60.5" stroke="#333" stroke-width="2" fill="none"/><path d="M1041 481.03h-2V480h2z" fill="#333"/><path d="M1040 556.76l-4.64-14.26h9.28z" stroke="#333" stroke-width="2" fill="#333"/><path d="M959 600h-60.5" stroke="#333" stroke-width="2" fill="none"/><path d="M960 601h-1.03v-2H960z" fill="#333"/><path d="M883.24 600l14.26-4.64v9.28z" stroke="#333" stroke-width="2" fill="#333"/><path d="M800 641v60.5" stroke="#333" stroke-width="2" fill="none"/><path d="M801 641.03h-2V640h2z" fill="#333"/><path d="M800 716.76l-4.64-14.26h9.28z" stroke="#333" stroke-width="2" fill="#333"/><path d="M800 801v60.5" stroke="#333" stroke-width="2" fill="none"/><path d="M801 801.03h-2V800h2z" fill="#333"/><path d="M800 876.76l-4.64-14.26h9.28z" stroke="#333" stroke-width="2" fill="#333"/><path d="M800 961v60.5" stroke="#333" stroke-width="2" fill="none"/><path d="M801 961.03h-2V960h2z" fill="#333"/><path d="M800 1036.76l-4.64-14.26h9.28z" stroke="#333" stroke-width="2" fill="#333"/><path d="M800 1121v61.02" stroke="#333" stroke-width="2" fill="none"/><path d="M801 1121.03h-2V1120h2z" fill="#333"/><path d="M800 1197.3l-4.64-14.28h9.28z" stroke="#333" stroke-width="2" fill="#333"/><path d="M801 1341.5h-2v-10.96h2zm0-32.56h-2v-28.46h2z" fill="#333"/><path d="M801 1280.5h-2v-1.23l1 .2 1-.2zM800 1356.76l-4.64-14.26h9.28z" fill="#333"/><path d="M800 1360l-6-18.5h12zm-3.26-16.5l3.26 10.03 3.26-10.03z" fill="#333"/><use xlink:href="#D" transform="matrix(1,0,0,1,790.5,1308.9380285) translate(0 14.4)"/><path d="M921 1238.2l-.82 1.98-1.98.82h-38.25v-2h37.85l.85-.35.35-.85v-24.07h2zm-.82-318.38l.82 1.98v270.33h-2V922.2l-.35-.85-.85-.35h-19.3v-2h19.7z" fill="#333"/><path d="M879.98 1241H878l.2-.1.75-.9-.74-.9-.2-.1h1.98zM897.5 924.64L883.24 920l14.26-4.64z" fill="#333"/><path d="M898.5 926l-18.5-6 18.5-6zm-12.03-6l10.03 3.26v-6.52z" fill="#333"/><use xlink:href="#E" transform="matrix(1,0,0,1,903.525,1192.1333333333334) translate(0 14.4)"/><path d="M720 1522c0-1.1.9-2 2-2h156c1.1 0 2 .9 2 2v76c0 1.1-.9 2-2 2H722c-1.1 0-2-.9-2-2z" fill="#b1d6f0"/><use xlink:href="#F" transform="matrix(1,0,0,1,725,1525) translate(16.1 16.5875)"/><use xlink:href="#G" transform="matrix(1,0,0,1,725,1525) translate(72.05000000000001 16.5875)"/><use xlink:href="#H" transform="matrix(1,0,0,1,725,1525) translate(119.94999999999999 16.5875)"/><use xlink:href="#I" transform="matrix(1,0,0,1,725,1525) translate(51.525 38.1875)"/><use xlink:href="#J" transform="matrix(1,0,0,1,725,1525) translate(85.525 38.1875)"/><use xlink:href="#K" transform="matrix(1,0,0,1,725,1525) translate(25.025 59.7875)"/><path d="M800 1441v60.5" stroke="#333" stroke-width="2" fill="none"/><path d="M801 1441.03h-2V1440h2z" fill="#333"/><path d="M800 1516.76l-4.64-14.26h9.28z" stroke="#333" stroke-width="2" fill="#333"/><path d="M558.22 1520.1c.98-.5 2.58-.5 3.56 0l76.44 39c.98.5.98 1.3 0 1.8l-76.44 39c-.98.5-2.58.5-3.56 0l-76.44-39c-.98-.5-.98-1.3 0-1.8z" fill="#ffeca9"/><use xlink:href="#f" transform="matrix(1,0,0,1,485,1524.2000000000116) translate(55.505 27.9)"/><use xlink:href="#L" transform="matrix(1,0,0,1,485,1524.2000000000116) translate(74.505 27.9)"/><use xlink:href="#I" transform="matrix(1,0,0,1,485,1524.2000000000116) translate(41.53 49.5)"/><use xlink:href="#M" transform="matrix(1,0,0,1,485,1524.2000000000116) translate(75.53 49.5)"/><path d="M719 1560h-61.54" stroke="#333" stroke-width="2" fill="none"/><path d="M720 1561h-1.03v-2H720z" fill="#333"/><path d="M642.2 1560l14.26-4.64v9.28z" stroke="#333" stroke-width="2" fill="#333"/><path d="M480 1361.2c0-1.1.9-2 2-2h156c1.1 0 2 .9 2 2v77.6c0 1.1-.9 2-2 2H482c-1.1 0-2-.9-2-2z" fill="#b1d6f0"/><g><use xlink:href="#N" transform="matrix(1,0,0,1,485,1364.2000000000116) translate(19.074999999999996 39.15)"/><use xlink:href="#O" transform="matrix(1,0,0,1,485,1364.2000000000116) translate(68.07499999999999 39.15)"/></g><path d="M561 1518.73h-2v-27.66h2zm0-49.26h-2v-10.17h2z" fill="#333"/><path d="M561 1519.94l-1-.2-1 .2v-1.23h2zM564.64 1458.3h-9.28l4.64-14.26z" fill="#333"/><path d="M566 1459.3h-12l6-18.5zm-9.26-2h6.52l-3.26-10.03z" fill="#333"/><g><use xlink:href="#D" transform="matrix(1,0,0,1,550.5,1469.4661380000116) translate(0 14.4)"/></g><path d="M441 1557.8l.35.85.85.35h37.84v2H441.8l-1.98-.82-.82-1.98v-67.93h2zM461.5 281h-19.3l-.85.35-.35.85v1186.47h-2V281.8l.82-1.98 1.98-.82h19.7z" fill="#333"/><path d="M481.78 1559.1l-.74.9.74.9.18.1h-1.94v-2h1.94zM476.76 280l-14.26 4.64v-9.28z" fill="#333"/><path d="M480 280l-18.5 6v-12zm-16.5 3.26l10.03-3.26-10.03-3.26z" fill="#333"/><g><use xlink:href="#E" transform="matrix(1,0,0,1,423.525,1468.6666666666665) translate(0 14.4)"/></g><path d="M560 1358.2V338.5" stroke="#333" stroke-width="2" fill="none"/><path d="M561 1359.2h-2v-1.03h2z" fill="#333"/><path d="M560 323.24l4.64 14.26h-9.28z" stroke="#333" stroke-width="2" fill="#333"/><path d="M200 82c0-1.1.9-2 2-2h156c1.1 0 2 .9 2 2v36c0 1.1-.9 2-2 2H202c-1.1 0-2-.9-2-2z" fill="#b1d6f0"/><g><use xlink:href="#P" transform="matrix(1,0,0,1,205,85) translate(14.124999999999993 18.15)"/></g><path d="M200 142c0-1.1.9-2 2-2h156c1.1 0 2 .9 2 2v36c0 1.1-.9 2-2 2H202c-1.1 0-2-.9-2-2z" fill="#ffbbb1"/><g><use xlink:href="#Q" transform="matrix(1,0,0,1,205,145) translate(11.124999999999993 18.15)"/><use xlink:href="#R" transform="matrix(1,0,0,1,205,145) translate(100.92500000000001 18.15)"/></g><path d="M200 202c0-1.1.9-2 2-2h156c1.1 0 2 .9 2 2v36c0 1.1-.9 2-2 2H202c-1.1 0-2-.9-2-2z" fill="#d1bcd2"/><g><use xlink:href="#S" transform="matrix(1,0,0,1,205,205) translate(11.549999999999997 18.15)"/></g><path d="M278.06 260.5c1.07-.28 2.8-.28 3.88 0l76.12 19c1.07.28 1.07.72 0 1l-76.12 19c-1.07.28-2.8.28-3.88 0l-76.12-19c-1.07-.28-1.07-.72 0-1z" fill="#ffeca9"/><g><use xlink:href="#T" transform="matrix(1,0,0,1,205,265) translate(48.055 16.41)"/></g><defs><path d="M185-189c-5-48-123-54-124 2 14 75 158 14 163 119 3 78-121 87-175 55-17-10-28-26-33-46l33-7c5 56 141 63 141-1 0-78-155-14-162-118-5-82 145-84 179-34 5 7 8 16 11 25" id="U"/><path d="M59-47c-2 24 18 29 38 22v24C64 9 27 4 27-40v-127H5v-23h24l9-43h21v43h35v23H59v120" id="V"/><path d="M141-36C126-15 110 5 73 4 37 3 15-17 15-53c-1-64 63-63 125-63 3-35-9-54-41-54-24 1-41 7-42 31l-33-3c5-37 33-52 76-52 45 0 72 20 72 64v82c-1 20 7 32 28 27v20c-31 9-61-2-59-35zM48-53c0 20 12 33 32 33 41-3 63-29 60-74-43 2-92-5-92 41" id="W"/><path d="M114-163C36-179 61-72 57 0H25l-1-190h30c1 12-1 29 2 39 6-27 23-49 58-41v29" id="X"/><g id="a"><use transform="matrix(0.05,0,0,0.05,0,0)" xlink:href="#U"/><use transform="matrix(0.05,0,0,0.05,12,0)" xlink:href="#V"/><use transform="matrix(0.05,0,0,0.05,17,0)" xlink:href="#W"/><use transform="matrix(0.05,0,0,0.05,27,0)" xlink:href="#X"/><use transform="matrix(0.05,0,0,0.05,32.95,0)" xlink:href="#V"/></g><path d="M30-248c87 1 191-15 191 75 0 78-77 80-158 76V0H30v-248zm33 125c57 0 124 11 124-50 0-59-68-47-124-48v98" id="Y"/><path d="M100-194c63 0 86 42 84 106H49c0 40 14 67 53 68 26 1 43-12 49-29l28 8c-11 28-37 45-77 45C44 4 14-33 15-96c1-61 26-98 85-98zm52 81c6-60-76-77-97-28-3 7-6 17-6 28h103" id="Z"/><path d="M135-143c-3-34-86-38-87 0 15 53 115 12 119 90S17 21 10-45l28-5c4 36 97 45 98 0-10-56-113-15-118-90-4-57 82-63 122-42 12 7 21 19 24 35" id="aa"/><path d="M117-194c89-4 53 116 60 194h-32v-121c0-31-8-49-39-48C34-167 62-67 57 0H25l-1-190h30c1 10-1 24 2 32 11-22 29-35 61-36" id="ab"/><g id="b"><use transform="matrix(0.05,0,0,0.05,0,0)" xlink:href="#Y"/><use transform="matrix(0.05,0,0,0.05,12,0)" xlink:href="#X"/><use transform="matrix(0.05,0,0,0.05,17.95,0)" xlink:href="#Z"/><use transform="matrix(0.05,0,0,0.05,27.950000000000003,0)" xlink:href="#aa"/><use transform="matrix(0.05,0,0,0.05,36.95,0)" xlink:href="#Z"/><use transform="matrix(0.05,0,0,0.05,46.95,0)" xlink:href="#ab"/><use transform="matrix(0.05,0,0,0.05,56.95,0)" xlink:href="#V"/><use transform="matrix(0.05,0,0,0.05,61.95,0)" xlink:href="#Z"/><use transform="matrix(0.05,0,0,0.05,71.95,0)" xlink:href="#Z"/><use transform="matrix(0.05,0,0,0.05,81.95,0)" xlink:href="#X"/></g><path d="M210-169c-67 3-38 105-44 169h-31v-121c0-29-5-50-35-48C34-165 62-65 56 0H25l-1-190h30c1 10-1 24 2 32 10-44 99-50 107 0 11-21 27-35 58-36 85-2 47 119 55 194h-31v-121c0-29-5-49-35-48" id="ac"/><path d="M24-231v-30h32v30H24zM24 0v-190h32V0H24" id="ad"/><path d="M24 0v-261h32V0H24" id="ae"/><g id="c"><use transform="matrix(0.05,0,0,0.05,0,0)" xlink:href="#ac"/><use transform="matrix(0.05,0,0,0.05,14.950000000000001,0)" xlink:href="#W"/><use transform="matrix(0.05,0,0,0.05,24.950000000000003,0)" xlink:href="#V"/><use transform="matrix(0.05,0,0,0.05,29.950000000000003,0)" xlink:href="#Z"/><use transform="matrix(0.05,0,0,0.05,39.95,0)" xlink:href="#X"/><use transform="matrix(0.05,0,0,0.05,45.900000000000006,0)" xlink:href="#ad"/><use transform="matrix(0.05,0,0,0.05,49.85000000000001,0)" xlink:href="#W"/><use transform="matrix(0.05,0,0,0.05,59.85,0)" xlink:href="#W"/><use transform="matrix(0.05,0,0,0.05,69.85000000000001,0)" xlink:href="#ae"/></g><path d="M233-177c-1 41-23 64-60 70L243 0h-38l-65-103H63V0H30v-248c88 3 205-21 203 71zM63-129c60-2 137 13 137-47 0-61-80-42-137-45v92" id="af"/><path d="M63-220v92h138v28H63V0H30v-248h175v28H63" id="ag"/><path d="M33 0v-248h34V0H33" id="ah"/><path d="M30-248c118-7 216 8 213 122C240-48 200 0 122 0H30v-248zM63-27c89 8 146-16 146-99s-60-101-146-95v194" id="ai"/><path d="M16-82v-28h88v28H16" id="aj"/><path d="M100-194c62-1 85 37 85 99 1 63-27 99-86 99S16-35 15-95c0-66 28-99 85-99zM99-20c44 1 53-31 53-75 0-43-8-75-51-75s-53 32-53 75 10 74 51 75" id="ak"/><g id="d"><use transform="matrix(0.05,0,0,0.05,0,0)" xlink:href="#af"/><use transform="matrix(0.05,0,0,0.05,12.950000000000001,0)" xlink:href="#ag"/><use transform="matrix(0.05,0,0,0.05,23.900000000000002,0)" xlink:href="#ah"/><use transform="matrix(0.05,0,0,0.05,28.900000000000002,0)" xlink:href="#ai"/><use transform="matrix(0.05,0,0,0.05,41.85,0)" xlink:href="#aj"/><use transform="matrix(0.05,0,0,0.05,47.800000000000004,0)" xlink:href="#aa"/><use transform="matrix(0.05,0,0,0.05,56.800000000000004,0)" xlink:href="#Z"/><use transform="matrix(0.05,0,0,0.05,66.80000000000001,0)" xlink:href="#ab"/><use transform="matrix(0.05,0,0,0.05,76.80000000000001,0)" xlink:href="#aa"/><use transform="matrix(0.05,0,0,0.05,85.80000000000001,0)" xlink:href="#ak"/><use transform="matrix(0.05,0,0,0.05,95.80000000000001,0)" xlink:href="#X"/></g><g id="e"><use transform="matrix(0.05,0,0,0.05,0,0)" xlink:href="#ae"/><use transform="matrix(0.05,0,0,0.05,3.95,0)" xlink:href="#Z"/><use transform="matrix(0.05,0,0,0.05,13.949999999999998,0)" xlink:href="#Z"/><use transform="matrix(0.05,0,0,0.05,23.95,0)" xlink:href="#aa"/><use transform="matrix(0.05,0,0,0.05,32.95,0)" xlink:href="#V"/></g><g id="f"><use transform="matrix(0.05,0,0,0.05,0,0)" xlink:href="#ah"/><use transform="matrix(0.05,0,0,0.05,5,0)" xlink:href="#aa"/></g><path d="M106-169C34-169 62-67 57 0H25v-261h32l-1 103c12-21 28-36 61-36 89 0 53 116 60 194h-32v-121c2-32-8-49-39-48" id="al"/><g id="g"><use transform="matrix(0.05,0,0,0.05,0,0)" xlink:href="#al"/><use transform="matrix(0.05,0,0,0.05,10,0)" xlink:href="#Z"/><use transform="matrix(0.05,0,0,0.05,20,0)" xlink:href="#V"/></g><path d="M177-190C167-65 218 103 67 71c-23-6-38-20-44-43l32-5c15 47 100 32 89-28v-30C133-14 115 1 83 1 29 1 15-40 15-95c0-56 16-97 71-98 29-1 48 16 59 35 1-10 0-23 2-32h30zM94-22c36 0 50-32 50-73 0-42-14-75-50-75-39 0-46 34-46 75s6 73 46 73" id="am"/><path d="M103-251c84 0 111 97 45 133-19 10-37 24-39 52H78c0-63 77-55 77-114 0-30-21-42-52-43-32 0-53 17-56 46l-32-2c7-45 34-72 88-72zM77 0v-35h34V0H77" id="an"/><g id="h"><use transform="matrix(0.05,0,0,0.05,0,0)" xlink:href="#am"/><use transform="matrix(0.05,0,0,0.05,10,0)" xlink:href="#ae"/><use transform="matrix(0.05,0,0,0.05,13.949999999999998,0)" xlink:href="#W"/><use transform="matrix(0.05,0,0,0.05,23.95,0)" xlink:href="#aa"/><use transform="matrix(0.05,0,0,0.05,32.95,0)" xlink:href="#an"/></g><path d="M160-131c35 5 61 23 61 61C221 17 115-2 30 0v-248c76 3 177-17 177 60 0 33-19 50-47 57zm-97-11c50-1 110 9 110-42 0-47-63-36-110-37v79zm0 115c55-2 124 14 124-45 0-56-70-42-124-44v89" id="ao"/><path d="M115-194c55 1 70 41 70 98S169 2 115 4C84 4 66-9 55-30l1 105H24l-1-265h31l2 30c10-21 28-34 59-34zm-8 174c40 0 45-34 45-75s-6-73-45-74c-42 0-51 32-51 76 0 43 10 73 51 73" id="ap"/><g id="i"><use transform="matrix(0.05,0,0,0.05,0,0)" xlink:href="#ao"/><use transform="matrix(0.05,0,0,0.05,12,0)" xlink:href="#Z"/><use transform="matrix(0.05,0,0,0.05,22,0)" xlink:href="#ap"/><use transform="matrix(0.05,0,0,0.05,32,0)" xlink:href="#W"/><use transform="matrix(0.05,0,0,0.05,42,0)" xlink:href="#W"/><use transform="matrix(0.05,0,0,0.05,52,0)" xlink:href="#ae"/></g><path d="M85-194c31 0 48 13 60 33l-1-100h32l1 261h-30c-2-10 0-23-3-31C134-8 116 4 85 4 32 4 16-35 15-94c0-66 23-100 70-100zm9 24c-40 0-46 34-46 75 0 40 6 74 45 74 42 0 51-32 51-76 0-42-9-74-50-73" id="aq"/><g id="j"><use transform="matrix(0.05,0,0,0.05,0,0)" xlink:href="#aq"/><use transform="matrix(0.05,0,0,0.05,10,0)" xlink:href="#Z"/></g><path d="M24-231v-30h32v30H24zM-9 49c24 4 33-6 33-30v-209h32V24c2 40-23 58-65 49V49" id="ar"/><path d="M84 4C-5 8 30-112 23-190h32v120c0 31 7 50 39 49 72-2 45-101 50-169h31l1 190h-30c-1-10 1-25-2-33-11 22-28 36-60 37" id="as"/><g id="k"><use transform="matrix(0.05,0,0,0.05,0,0)" xlink:href="#ar"/><use transform="matrix(0.05,0,0,0.05,3.95,0)" xlink:href="#as"/><use transform="matrix(0.05,0,0,0.05,13.949999999999998,0)" xlink:href="#ad"/><use transform="matrix(0.05,0,0,0.05,17.9,0)" xlink:href="#aa"/><use transform="matrix(0.05,0,0,0.05,26.899999999999995,0)" xlink:href="#V"/><use transform="matrix(0.05,0,0,0.05,31.899999999999995,0)" xlink:href="#Z"/></g><path d="M115-194c53 0 69 39 70 98 0 66-23 100-70 100C84 3 66-7 56-30L54 0H23l1-261h32v101c10-23 28-34 59-34zm-8 174c40 0 45-34 45-75 0-40-5-75-45-74-42 0-51 32-51 76 0 43 10 73 51 73" id="at"/><path d="M143 0L79-87 56-68V0H24v-261h32v163l83-92h37l-77 82L181 0h-38" id="au"/><g id="l"><use transform="matrix(0.05,0,0,0.05,0,0)" xlink:href="#at"/><use transform="matrix(0.05,0,0,0.05,10,0)" xlink:href="#W"/><use transform="matrix(0.05,0,0,0.05,20,0)" xlink:href="#au"/></g><g id="m"><use transform="matrix(0.05,0,0,0.05,0,0)" xlink:href="#Y"/><use transform="matrix(0.05,0,0,0.05,12,0)" xlink:href="#X"/><use transform="matrix(0.05,0,0,0.05,17.95,0)" xlink:href="#Z"/><use transform="matrix(0.05,0,0,0.05,27.950000000000003,0)" xlink:href="#aa"/><use transform="matrix(0.05,0,0,0.05,36.95,0)" xlink:href="#Z"/><use transform="matrix(0.05,0,0,0.05,46.95,0)" xlink:href="#ab"/><use transform="matrix(0.05,0,0,0.05,56.95,0)" xlink:href="#V"/><use transform="matrix(0.05,0,0,0.05,61.95,0)" xlink:href="#Z"/><use transform="matrix(0.05,0,0,0.05,71.95,0)" xlink:href="#Z"/><use transform="matrix(0.05,0,0,0.05,81.95,0)" xlink:href="#X"/></g><g id="n"><use transform="matrix(0.05,0,0,0.05,0,0)" xlink:href="#au"/><use transform="matrix(0.05,0,0,0.05,9,0)" xlink:href="#ae"/><use transform="matrix(0.05,0,0,0.05,12.949999999999998,0)" xlink:href="#Z"/><use transform="matrix(0.05,0,0,0.05,22.95,0)" xlink:href="#as"/><use transform="matrix(0.05,0,0,0.05,32.95,0)" xlink:href="#X"/></g><path d="M194 0L95-120 63-95V0H30v-248h33v124l119-124h40L117-140 236 0h-42" id="av"/><g id="o"><use transform="matrix(0.05,0,0,0.05,0,0)" xlink:href="#av"/><use transform="matrix(0.05,0,0,0.05,12,0)" xlink:href="#ae"/><use transform="matrix(0.05,0,0,0.05,15.949999999999998,0)" xlink:href="#Z"/><use transform="matrix(0.05,0,0,0.05,25.950000000000003,0)" xlink:href="#as"/><use transform="matrix(0.05,0,0,0.05,35.95,0)" xlink:href="#X"/><use transform="matrix(0.05,0,0,0.05,41.900000000000006,0)" xlink:href="#aa"/><use transform="matrix(0.05,0,0,0.05,50.900000000000006,0)" xlink:href="#Z"/><use transform="matrix(0.05,0,0,0.05,60.900000000000006,0)" xlink:href="#ab"/><use transform="matrix(0.05,0,0,0.05,70.9,0)" xlink:href="#aa"/><use transform="matrix(0.05,0,0,0.05,79.9,0)" xlink:href="#ak"/><use transform="matrix(0.05,0,0,0.05,89.9,0)" xlink:href="#X"/></g><g id="p"><use transform="matrix(0.05,0,0,0.05,0,0)" xlink:href="#at"/><use transform="matrix(0.05,0,0,0.05,10,0)" xlink:href="#Z"/><use transform="matrix(0.05,0,0,0.05,20,0)" xlink:href="#ap"/><use transform="matrix(0.05,0,0,0.05,30,0)" xlink:href="#W"/><use transform="matrix(0.05,0,0,0.05,40,0)" xlink:href="#W"/><use transform="matrix(0.05,0,0,0.05,50,0)" xlink:href="#ae"/><use transform="matrix(0.05,0,0,0.05,53.95,0)" xlink:href="#V"/></g><path d="M108 0H70L1-190h34L89-25l56-165h34" id="aw"/><g id="q"><use transform="matrix(0.05,0,0,0.05,0,0)" xlink:href="#U"/><use transform="matrix(0.05,0,0,0.05,12,0)" xlink:href="#Z"/><use transform="matrix(0.05,0,0,0.05,22,0)" xlink:href="#X"/><use transform="matrix(0.05,0,0,0.05,27.950000000000003,0)" xlink:href="#aw"/><use transform="matrix(0.05,0,0,0.05,36.95,0)" xlink:href="#ak"/></g><g id="r"><use transform="matrix(0.05,0,0,0.05,0,0)" xlink:href="#ak"/><use transform="matrix(0.05,0,0,0.05,10,0)" xlink:href="#ap"/><use transform="matrix(0.05,0,0,0.05,20,0)" xlink:href="#Z"/><use transform="matrix(0.05,0,0,0.05,30,0)" xlink:href="#ab"/><use transform="matrix(0.05,0,0,0.05,40,0)" xlink:href="#V"/></g><path d="M266 0h-40l-56-210L115 0H75L2-248h35L96-30l15-64 43-154h32l59 218 59-218h35" id="ax"/><g id="s"><use transform="matrix(0.05,0,0,0.05,0,0)" xlink:href="#ax"/><use transform="matrix(0.05,0,0,0.05,16.599999999999998,0)" xlink:href="#Z"/><use transform="matrix(0.05,0,0,0.05,26.599999999999994,0)" xlink:href="#X"/><use transform="matrix(0.05,0,0,0.05,32.55,0)" xlink:href="#ap"/></g><path d="M101-234c-31-9-42 10-38 44h38v23H63V0H32v-167H5v-23h27c-7-52 17-82 69-68v24" id="ay"/><g id="t"><use transform="matrix(0.05,0,0,0.05,0,0)" xlink:href="#W"/><use transform="matrix(0.05,0,0,0.05,10,0)" xlink:href="#ay"/><use transform="matrix(0.05,0,0,0.05,15,0)" xlink:href="#aw"/><use transform="matrix(0.05,0,0,0.05,24,0)" xlink:href="#W"/><use transform="matrix(0.05,0,0,0.05,34,0)" xlink:href="#ae"/></g><g id="u"><use transform="matrix(0.05,0,0,0.05,0,0)" xlink:href="#ad"/><use transform="matrix(0.05,0,0,0.05,3.95,0)" xlink:href="#ab"/></g><path d="M30 0v-248h33v221h125V0H30" id="az"/><g id="v"><use transform="matrix(0.05,0,0,0.05,0,0)" xlink:href="#az"/><use transform="matrix(0.05,0,0,0.05,10,0)" xlink:href="#ak"/><use transform="matrix(0.05,0,0,0.05,20,0)" xlink:href="#W"/><use transform="matrix(0.05,0,0,0.05,30,0)" xlink:href="#aq"/></g><path d="M96-169c-40 0-48 33-48 73s9 75 48 75c24 0 41-14 43-38l32 2c-6 37-31 61-74 61-59 0-76-41-82-99-10-93 101-131 147-64 4 7 5 14 7 22l-32 3c-4-21-16-35-41-35" id="aA"/><g id="w"><use transform="matrix(0.05,0,0,0.05,0,0)" xlink:href="#aA"/><use transform="matrix(0.05,0,0,0.05,9,0)" xlink:href="#Z"/><use transform="matrix(0.05,0,0,0.05,19,0)" xlink:href="#ae"/><use transform="matrix(0.05,0,0,0.05,22.95,0)" xlink:href="#ae"/></g><g id="x"><use transform="matrix(0.05,0,0,0.05,0,0)" xlink:href="#ac"/><use transform="matrix(0.05,0,0,0.05,14.950000000000001,0)" xlink:href="#Z"/><use transform="matrix(0.05,0,0,0.05,24.950000000000003,0)" xlink:href="#Z"/><use transform="matrix(0.05,0,0,0.05,34.95,0)" xlink:href="#V"/></g><path d="M206 0h-36l-40-164L89 0H53L-1-190h32L70-26l43-164h34l41 164 42-164h31" id="aB"/><g id="y"><use transform="matrix(0.05,0,0,0.05,0,0)" xlink:href="#am"/><use transform="matrix(0.05,0,0,0.05,10,0)" xlink:href="#Z"/><use transform="matrix(0.05,0,0,0.05,20,0)" xlink:href="#aB"/><use transform="matrix(0.05,0,0,0.05,32.95,0)" xlink:href="#ad"/><use transform="matrix(0.05,0,0,0.05,36.900000000000006,0)" xlink:href="#aA"/><use transform="matrix(0.05,0,0,0.05,45.900000000000006,0)" xlink:href="#al"/><use transform="matrix(0.05,0,0,0.05,55.900000000000006,0)" xlink:href="#V"/></g><g id="z"><use transform="matrix(0.05,0,0,0.05,0,0)" xlink:href="#am"/><use transform="matrix(0.05,0,0,0.05,10,0)" xlink:href="#Z"/><use transform="matrix(0.05,0,0,0.05,20,0)" xlink:href="#aB"/><use transform="matrix(0.05,0,0,0.05,32.95,0)" xlink:href="#ad"/><use transform="matrix(0.05,0,0,0.05,36.900000000000006,0)" xlink:href="#aA"/><use transform="matrix(0.05,0,0,0.05,45.900000000000006,0)" xlink:href="#al"/><use transform="matrix(0.05,0,0,0.05,55.900000000000006,0)" xlink:href="#V"/></g><g id="A"><use transform="matrix(0.05,0,0,0.05,0,0)" xlink:href="#V"/><use transform="matrix(0.05,0,0,0.05,5,0)" xlink:href="#ak"/><use transform="matrix(0.05,0,0,0.05,15,0)" xlink:href="#Z"/><use transform="matrix(0.05,0,0,0.05,25,0)" xlink:href="#am"/><use transform="matrix(0.05,0,0,0.05,35,0)" xlink:href="#Z"/><use transform="matrix(0.05,0,0,0.05,45,0)" xlink:href="#ab"/><use transform="matrix(0.05,0,0,0.05,55,0)" xlink:href="#ak"/><use transform="matrix(0.05,0,0,0.05,65,0)" xlink:href="#ac"/><use transform="matrix(0.05,0,0,0.05,79.95,0)" xlink:href="#Z"/><use transform="matrix(0.05,0,0,0.05,89.95,0)" xlink:href="#ab"/><use transform="matrix(0.05,0,0,0.05,99.95,0)" xlink:href="#an"/></g><g id="B"><use transform="matrix(0.05,0,0,0.05,0,0)" xlink:href="#aa"/><use transform="matrix(0.05,0,0,0.05,9,0)" xlink:href="#ae"/><use transform="matrix(0.05,0,0,0.05,12.949999999999998,0)" xlink:href="#as"/><use transform="matrix(0.05,0,0,0.05,22.95,0)" xlink:href="#ad"/><use transform="matrix(0.05,0,0,0.05,26.899999999999995,0)" xlink:href="#V"/></g><g id="C"><use transform="matrix(0.05,0,0,0.05,0,0)" xlink:href="#aq"/><use transform="matrix(0.05,0,0,0.05,10,0)" xlink:href="#Z"/><use transform="matrix(0.05,0,0,0.05,20,0)" xlink:href="#au"/><use transform="matrix(0.05,0,0,0.05,29,0)" xlink:href="#aa"/><use transform="matrix(0.05,0,0,0.05,38,0)" xlink:href="#Z"/><use transform="matrix(0.05,0,0,0.05,48,0)" xlink:href="#ae"/></g><path d="M153-248C145-148 188 4 80 4 36 3 13-21 6-62l32-5c4 25 16 42 43 43 27 0 39-20 39-49v-147H72v-28h81" id="aC"/><g id="D"><use transform="matrix(0.05,0,0,0.05,0,0)" xlink:href="#aC"/><use transform="matrix(0.05,0,0,0.05,9,0)" xlink:href="#W"/></g><path d="M190 0L58-211 59 0H30v-248h39L202-35l-2-213h31V0h-41" id="aD"/><g id="E"><use transform="matrix(0.05,0,0,0.05,0,0)" xlink:href="#aD"/><use transform="matrix(0.05,0,0,0.05,12.950000000000001,0)" xlink:href="#Z"/><use transform="matrix(0.05,0,0,0.05,22.950000000000003,0)" xlink:href="#Z"/></g><path d="M205 0l-28-72H64L36 0H1l101-248h38L239 0h-34zm-38-99l-47-123c-12 45-31 82-46 123h93" id="aE"/><g id="F"><use transform="matrix(0.05,0,0,0.05,0,0)" xlink:href="#aE"/><use transform="matrix(0.05,0,0,0.05,12,0)" xlink:href="#W"/><use transform="matrix(0.05,0,0,0.05,22,0)" xlink:href="#ab"/><use transform="matrix(0.05,0,0,0.05,32,0)" xlink:href="#V"/><use transform="matrix(0.05,0,0,0.05,37,0)" xlink:href="#W"/><use transform="matrix(0.05,0,0,0.05,47,0)" xlink:href="#ae"/></g><g id="G"><use transform="matrix(0.05,0,0,0.05,0,0)" xlink:href="#ad"/><use transform="matrix(0.05,0,0,0.05,3.95,0)" xlink:href="#V"/><use transform="matrix(0.05,0,0,0.05,8.95,0)" xlink:href="#Z"/><use transform="matrix(0.05,0,0,0.05,18.95,0)" xlink:href="#ac"/><use transform="matrix(0.05,0,0,0.05,33.9,0)" xlink:href="#aa"/></g><g id="H"><use transform="matrix(0.05,0,0,0.05,0,0)" xlink:href="#ad"/><use transform="matrix(0.05,0,0,0.05,3.95,0)" xlink:href="#ab"/></g><g id="I"><use transform="matrix(0.05,0,0,0.05,0,0)" xlink:href="#at"/><use transform="matrix(0.05,0,0,0.05,10,0)" xlink:href="#W"/><use transform="matrix(0.05,0,0,0.05,20,0)" xlink:href="#au"/></g><g id="J"><use transform="matrix(0.05,0,0,0.05,0,0)" xlink:href="#ad"/><use transform="matrix(0.05,0,0,0.05,3.95,0)" xlink:href="#aa"/></g><g id="K"><use transform="matrix(0.05,0,0,0.05,0,0)" xlink:href="#V"/><use transform="matrix(0.05,0,0,0.05,5,0)" xlink:href="#ak"/><use transform="matrix(0.05,0,0,0.05,15,0)" xlink:href="#Z"/><use transform="matrix(0.05,0,0,0.05,25,0)" xlink:href="#am"/><use transform="matrix(0.05,0,0,0.05,35,0)" xlink:href="#Z"/><use transform="matrix(0.05,0,0,0.05,45,0)" xlink:href="#ab"/><use transform="matrix(0.05,0,0,0.05,55,0)" xlink:href="#ak"/><use transform="matrix(0.05,0,0,0.05,65,0)" xlink:href="#ac"/><use transform="matrix(0.05,0,0,0.05,79.95,0)" xlink:href="#Z"/><use transform="matrix(0.05,0,0,0.05,89.95,0)" xlink:href="#ab"/></g><g id="L"><use transform="matrix(0.05,0,0,0.05,0,0)" xlink:href="#aq"/><use transform="matrix(0.05,0,0,0.05,10,0)" xlink:href="#Z"/></g><g id="M"><use transform="matrix(0.05,0,0,0.05,0,0)" xlink:href="#aw"/><use transform="matrix(0.05,0,0,0.05,9,0)" xlink:href="#ak"/><use transform="matrix(0.05,0,0,0.05,19,0)" xlink:href="#ae"/><use transform="matrix(0.05,0,0,0.05,22.95,0)" xlink:href="#an"/></g><path d="M143 4C61 4 22-44 18-125c-5-107 100-154 193-111 17 8 29 25 37 43l-32 9c-13-25-37-40-76-40-61 0-88 39-88 99 0 61 29 100 91 101 35 0 62-11 79-27v-45h-74v-28h105v86C228-13 192 4 143 4" id="aF"/><g id="N"><use transform="matrix(0.05,0,0,0.05,0,0)" xlink:href="#aF"/><use transform="matrix(0.05,0,0,0.05,14,0)" xlink:href="#Z"/><use transform="matrix(0.05,0,0,0.05,24,0)" xlink:href="#Z"/><use transform="matrix(0.05,0,0,0.05,34,0)" xlink:href="#ay"/><use transform="matrix(0.05,0,0,0.05,39,0)" xlink:href="#V"/></g><g id="O"><use transform="matrix(0.05,0,0,0.05,0,0)" xlink:href="#ac"/><use transform="matrix(0.05,0,0,0.05,14.950000000000001,0)" xlink:href="#Z"/><use transform="matrix(0.05,0,0,0.05,24.950000000000003,0)" xlink:href="#ae"/><use transform="matrix(0.05,0,0,0.05,28.900000000000002,0)" xlink:href="#aq"/><use transform="matrix(0.05,0,0,0.05,38.900000000000006,0)" xlink:href="#ad"/><use transform="matrix(0.05,0,0,0.05,42.85000000000001,0)" xlink:href="#ab"/><use transform="matrix(0.05,0,0,0.05,52.85,0)" xlink:href="#am"/></g><g id="P"><use transform="matrix(0.05,0,0,0.05,0,0)" xlink:href="#aE"/><use transform="matrix(0.05,0,0,0.05,12,0)" xlink:href="#ap"/><use transform="matrix(0.05,0,0,0.05,22,0)" xlink:href="#ap"/><use transform="matrix(0.05,0,0,0.05,32,0)" xlink:href="#ae"/><use transform="matrix(0.05,0,0,0.05,35.95,0)" xlink:href="#ad"/><use transform="matrix(0.05,0,0,0.05,39.900000000000006,0)" xlink:href="#aA"/><use transform="matrix(0.05,0,0,0.05,48.900000000000006,0)" xlink:href="#W"/><use transform="matrix(0.05,0,0,0.05,58.900000000000006,0)" xlink:href="#V"/><use transform="matrix(0.05,0,0,0.05,63.900000000000006,0)" xlink:href="#ad"/><use transform="matrix(0.05,0,0,0.05,67.85000000000001,0)" xlink:href="#Z"/><use transform="matrix(0.05,0,0,0.05,77.85000000000001,0)" xlink:href="#aj"/><use transform="matrix(0.05,0,0,0.05,83.80000000000001,0)" xlink:href="#W"/><use transform="matrix(0.05,0,0,0.05,93.80000000000001,0)" xlink:href="#aA"/><use transform="matrix(0.05,0,0,0.05,102.80000000000001,0)" xlink:href="#V"/><use transform="matrix(0.05,0,0,0.05,107.80000000000001,0)" xlink:href="#ad"/><use transform="matrix(0.05,0,0,0.05,111.75,0)" xlink:href="#Z"/></g><path d="M240 0l2-218c-23 76-54 145-80 218h-23L58-218 59 0H30v-248h44l77 211c21-75 51-140 76-211h43V0h-30" id="aG"/><g id="Q"><use transform="matrix(0.05,0,0,0.05,0,0)" xlink:href="#aG"/><use transform="matrix(0.05,0,0,0.05,14.950000000000001,0)" xlink:href="#Z"/><use transform="matrix(0.05,0,0,0.05,24.950000000000003,0)" xlink:href="#ab"/><use transform="matrix(0.05,0,0,0.05,34.95,0)" xlink:href="#aa"/><use transform="matrix(0.05,0,0,0.05,43.95,0)" xlink:href="#Z"/><use transform="matrix(0.05,0,0,0.05,53.95,0)" xlink:href="#ae"/><use transform="matrix(0.05,0,0,0.05,57.900000000000006,0)" xlink:href="#ad"/><use transform="matrix(0.05,0,0,0.05,61.85,0)" xlink:href="#ar"/><use transform="matrix(0.05,0,0,0.05,65.80000000000001,0)" xlink:href="#au"/><use transform="matrix(0.05,0,0,0.05,74.80000000000001,0)" xlink:href="#Z"/></g><g id="R"><use transform="matrix(0.05,0,0,0.05,0,0)" xlink:href="#W"/><use transform="matrix(0.05,0,0,0.05,10,0)" xlink:href="#aA"/><use transform="matrix(0.05,0,0,0.05,19,0)" xlink:href="#V"/><use transform="matrix(0.05,0,0,0.05,24,0)" xlink:href="#ad"/><use transform="matrix(0.05,0,0,0.05,27.950000000000003,0)" xlink:href="#Z"/></g><path d="M0 4l72-265h28L28 4H0" id="aH"/><g id="S"><use transform="matrix(0.05,0,0,0.05,0,0)" xlink:href="#U"/><use transform="matrix(0.05,0,0,0.05,12,0)" xlink:href="#Z"/><use transform="matrix(0.05,0,0,0.05,22,0)" xlink:href="#ab"/><use transform="matrix(0.05,0,0,0.05,32,0)" xlink:href="#aa"/><use transform="matrix(0.05,0,0,0.05,41,0)" xlink:href="#ak"/><use transform="matrix(0.05,0,0,0.05,51,0)" xlink:href="#X"/><use transform="matrix(0.05,0,0,0.05,56.95,0)" xlink:href="#aH"/><use transform="matrix(0.05,0,0,0.05,61.95,0)" xlink:href="#W"/><use transform="matrix(0.05,0,0,0.05,71.95,0)" xlink:href="#aA"/><use transform="matrix(0.05,0,0,0.05,80.95,0)" xlink:href="#V"/><use transform="matrix(0.05,0,0,0.05,85.95,0)" xlink:href="#as"/><use transform="matrix(0.05,0,0,0.05,95.95,0)" xlink:href="#W"/><use transform="matrix(0.05,0,0,0.05,105.95,0)" xlink:href="#V"/><use transform="matrix(0.05,0,0,0.05,110.95,0)" xlink:href="#ak"/><use transform="matrix(0.05,0,0,0.05,120.95,0)" xlink:href="#X"/></g><g id="T"><use transform="matrix(0.05,0,0,0.05,0,0)" xlink:href="#ao"/><use transform="matrix(0.05,0,0,0.05,12,0)" xlink:href="#Z"/><use transform="matrix(0.05,0,0,0.05,22,0)" xlink:href="#aa"/><use transform="matrix(0.05,0,0,0.05,31,0)" xlink:href="#ae"/><use transform="matrix(0.05,0,0,0.05,34.95,0)" xlink:href="#as"/><use transform="matrix(0.05,0,0,0.05,44.95,0)" xlink:href="#ad"/><use transform="matrix(0.05,0,0,0.05,48.900000000000006,0)" xlink:href="#V"/></g></defs></g></svg>